HIERARCHY
ROOT root
{
	OFFSET 0.000000 0.000000 0.000000
	CHANNELS 6 Xposition Yposition Zposition Zrotation Yrotation Xrotation
	JOINT lhip
	{
		OFFSET 0.058581 -0.082280 -0.017664
		CHANNELS 3 Zrotation Yrotation Xrotation
		JOINT lknee
		{
			OFFSET 0.043451 -0.386469 0.008037
			CHANNELS 3 Zrotation Yrotation Xrotation
			JOINT lankle
			{
				OFFSET -0.014790 -0.426874 -0.037428
				CHANNELS 3 Zrotation Yrotation Xrotation
				JOINT ltoe
				{
					OFFSET 0.041054 -0.060286 0.122042
					CHANNELS 3 Zrotation Yrotation Xrotation
					End Site
					{
						OFFSET 0.000000 0.000000 0.000000
					}
				}
			}
		}
	}
	JOINT rhip
	{
		OFFSET -0.060310 -0.090513 -0.013543
		CHANNELS 3 Zrotation Yrotation Xrotation
		JOINT rknee
		{
			OFFSET -0.043257 -0.383688 -0.004843
			CHANNELS 3 Zrotation Yrotation Xrotation
			JOINT rankle
			{
				OFFSET 0.019056 -0.420046 -0.034562
				CHANNELS 3 Zrotation Yrotation Xrotation
				JOINT rtoe
				{
					OFFSET -0.034840 -0.062106 0.130323
					CHANNELS 3 Zrotation Yrotation Xrotation
					End Site
					{
						OFFSET 0.000000 0.000000 0.000000
					}
				}
			}
		}
	}
	JOINT lowerback
	{
		OFFSET 0.004439 0.124404 -0.038385
		CHANNELS 3 Zrotation Yrotation Xrotation
		JOINT upperback
		{
			OFFSET 0.004488 0.137956 0.026820
			CHANNELS 3 Zrotation Yrotation Xrotation
			JOINT chest
			{
				OFFSET -0.002265 0.056032 0.002855
				CHANNELS 3 Zrotation Yrotation Xrotation
				JOINT lowerneck
				{
					OFFSET -0.013390 0.211636 -0.033468
					CHANNELS 3 Zrotation Yrotation Xrotation
					JOINT upperneck
					{
						OFFSET 0.010113 0.088937 0.050410
						CHANNELS 3 Zrotation Yrotation Xrotation
						End Site
						{
							OFFSET 0.000000 0.000000 0.000000
						}
					}
				}
				JOINT lclavicle
				{
					OFFSET 0.071702 0.114000 -0.018898
					CHANNELS 3 Zrotation Yrotation Xrotation
					JOINT lshoulder
					{
						OFFSET 0.122921 0.045205 -0.019046
						CHANNELS 3 Zrotation Yrotation Xrotation
						JOINT lelbow
						{
							OFFSET 0.255332 -0.015649 -0.022946
							CHANNELS 3 Zrotation Yrotation Xrotation
							JOINT lwrist
							{
								OFFSET 0.265709 0.012698 -0.007375
								CHANNELS 3 Zrotation Yrotation Xrotation
								End Site
								{
									OFFSET 0.000000 0.000000 0.000000
								}
							}
						}
					}
				}
				JOINT rclavicle
				{
					OFFSET -0.082954 0.112472 -0.023707
					CHANNELS 3 Zrotation Yrotation Xrotation
					JOINT rshoulder
					{
						OFFSET -0.113228 0.046853 -0.008472
						CHANNELS 3 Zrotation Yrotation Xrotation
						JOINT relbow
						{
							OFFSET -0.260127 -0.014369 -0.031269
							CHANNELS 3 Zrotation Yrotation Xrotation
							JOINT rwrist
							{
								OFFSET -0.269108 0.006794 -0.006027
								CHANNELS 3 Zrotation Yrotation Xrotation
								End Site
								{
									OFFSET 0.000000 0.000000 0.000000
								}
							}
						}
					}
				}
			}
		}
	}
}
MOTION
Frames: 17
Frame Time: 0.033333
0.003695 -1.333862 0.986962 -165.934388 0.462569 107.943757 6.228863 0.129489 -19.729944 -3.883828 1.415994 0.609970 -0.989935 13.412194 -9.852287 0.000000 -0.000000 0.000000 -5.953071 -12.839562 -21.998286 -2.435257 -22.867987 10.480321 2.730761 -8.988842 -3.150446 0.000000 -0.000000 0.000000 1.118293 7.440764 -27.445090 1.439594 -1.955858 16.555968 -2.613487 2.070512 -3.921396 -4.085958 22.100957 8.551717 4.147391 27.958504 6.861108 -32.557718 2.753927 -3.805081 -52.196758 3.007011 18.144456 14.917292 -26.571914 -9.384714 -11.056759 -8.273316 1.785778 26.956814 4.941360 1.529430 56.430329 4.626882 14.658740 -12.308304 17.145111 -17.613349 10.026981 10.674360 -9.605812 
0.004654 -1.332885 0.985979 -165.970607 0.528122 107.174318 6.175613 0.886717 -18.877430 -3.664574 1.973006 0.673672 -1.287134 12.273031 -9.663849 0.000000 -0.000000 0.000000 -5.835555 -13.445129 -20.766603 -2.061623 -21.731523 9.692717 3.773007 -9.588747 -3.046473 0.000000 -0.000000 0.000000 1.497758 7.147112 -26.055164 0.978095 -1.639113 14.879219 -2.476573 2.437074 -2.406341 -3.205249 22.722755 8.699570 3.416710 27.006434 5.991497 -31.598666 2.110389 -3.679186 -53.228167 2.542899 17.688494 14.615504 -26.634312 -8.835650 -14.137235 -8.696786 1.939069 26.476348 4.760469 1.690572 56.984629 5.430805 13.470208 -12.247264 16.920477 -17.751639 11.573832 10.249495 -8.303152 
0.004990 -1.332139 0.984121 -166.239253 0.519066 107.032583 6.089313 1.030112 -18.641935 -3.464544 2.394125 0.598721 -1.282991 11.986397 -9.305526 0.000000 -0.000000 0.000000 -6.019266 -13.580958 -20.669162 -1.962454 -21.627782 9.725913 3.952234 -9.391380 -2.990341 0.000000 -0.000000 0.000000 1.701765 7.056347 -26.361911 0.477538 -1.460518 14.608148 -2.654483 2.827327 -1.907641 -1.110594 22.947299 9.656352 3.065189 26.497817 6.613195 -30.149604 1.055265 -2.707045 -55.063831 2.398579 17.015406 15.363843 -26.329062 -9.612358 -15.351177 -9.066038 2.502111 26.641349 4.965026 3.034564 56.982966 6.310333 12.492802 -12.203890 16.832865 -18.329207 12.034904 10.190160 -7.730149 
0.005307 -1.331356 0.983291 -166.481709 0.167721 107.333643 5.743995 0.583285 -18.825827 -3.272337 2.725491 0.521107 -0.691383 12.152164 -9.109959 0.000000 -0.000000 0.000000 -6.576387 -13.651662 -21.105272 -1.858610 -21.707769 9.959543 4.422512 -9.403211 -3.009358 0.000000 -0.000000 0.000000 1.928752 6.580993 -25.065737 0.192717 -1.227954 12.947337 -2.548319 2.073063 -1.198390 -3.855141 22.758608 7.703378 3.418996 27.468579 5.490315 -31.334536 3.215227 -4.500592 -53.727721 2.123010 16.912424 13.767736 -26.881882 -9.035811 -14.604269 -10.007514 3.033108 26.450782 4.038486 2.614779 57.141969 7.594624 12.542036 -11.790887 16.498657 -17.731216 12.745281 10.033554 -5.847444 
0.005451 -1.331253 0.982579 -166.569968 0.120025 107.468659 5.715369 0.501680 -18.991210 -3.258466 2.890292 0.560309 -0.603687 12.206737 -9.036631 0.000000 -0.000000 0.000000 -6.715782 -13.595777 -21.324129 -1.824678 -21.838358 10.095153 4.426550 -9.340325 -2.994651 0.000000 -0.000000 0.000000 1.939641 6.522793 -25.179644 0.112568 -1.173949 12.879298 -2.549604 2.086319 -1.169276 -3.698589 22.794218 7.656764 3.402938 27.381542 5.655538 -31.179427 3.167474 -4.499227 -54.079108 2.133170 16.851147 14.049046 -26.623684 -9.518000 -13.851939 -9.728175 3.553041 26.387482 4.053821 2.636841 57.280914 7.529893 12.553796 -11.933611 16.561899 -17.673747 12.787716 10.055531 -5.937790 
0.005621 -1.330986 0.981281 -166.704846 -0.077484 107.625430 5.515577 0.340615 -19.144536 -3.197537 3.024507 0.476316 -0.549045 12.404509 -8.872434 0.000000 -0.000000 0.000000 -7.130400 -13.555960 -21.586381 -1.698574 -22.005877 10.295097 4.415499 -9.289207 -2.989426 0.000000 -0.000000 0.000000 1.882272 6.432141 -25.326694 -0.041415 -1.131209 12.972464 -2.625366 2.111892 -1.248202 -3.509130 22.714589 7.474974 3.374822 27.349367 5.884260 -30.950697 3.226584 -4.457754 -54.436502 2.024472 16.879910 14.144750 -26.688993 -9.736049 -13.089272 -9.352862 3.885213 26.392789 3.939060 2.614212 57.457401 7.571761 12.598572 -12.098198 16.683888 -17.738441 12.852213 9.992581 -5.977201 
0.005824 -1.330281 0.980211 -166.985413 -0.252505 107.757317 5.317830 0.147416 -19.191015 -3.066307 3.130115 0.467309 -0.504470 12.584832 -8.738318 0.000000 -0.000000 0.000000 -7.530102 -13.479798 -21.809629 -1.566966 -22.141095 10.461060 4.457747 -9.205258 -2.967973 0.000000 -0.000000 0.000000 1.864910 6.357738 -25.370306 -0.200681 -1.018599 12.799223 -2.688000 2.056483 -1.202748 -3.477010 22.893586 7.379865 3.494236 27.289863 6.075860 -30.840537 3.525808 -4.499010 -54.509369 2.042638 16.925960 13.931803 -27.040227 -9.298018 -13.702932 -9.819936 3.872416 26.413373 3.775889 2.766731 57.635593 7.892970 12.607941 -12.125941 16.625968 -17.787180 13.155276 9.905309 -5.631864 
0.006431 -1.330876 0.979087 -167.377039 -0.292885 108.116614 5.306055 0.073149 -19.511248 -2.944630 3.790067 0.311006 -0.730912 11.913549 -8.757073 0.000000 -0.000000 0.000000 -7.710309 -13.196138 -22.536468 -1.629287 -22.275372 10.884842 4.589829 -9.124102 -2.988516 0.000000 -0.000000 0.000000 2.028716 6.214159 -25.201265 -0.382020 -0.780765 12.019743 -2.701027 2.076709 -0.855741 -3.396829 23.033807 7.037212 3.321291 27.167097 6.302874 -30.635988 3.745323 -4.795602 -54.825560 2.201476 17.205919 13.994300 -27.146030 -8.968132 -13.930434 -9.875844 3.973514 26.366597 3.736832 2.646892 57.858956 7.969962 12.856952 -12.197868 16.759025 -17.849584 13.462076 9.726166 -5.539703 
0.007203 -1.330269 0.977770 -167.697800 -0.375212 108.357013 5.272220 0.026674 -19.732786 -2.897743 4.197054 0.384861 -0.768044 11.855922 -8.690810 0.000000 -0.000000 0.000000 -7.960215 -13.023780 -22.892353 -1.563763 -22.542914 11.088589 4.603638 -8.917038 -3.035361 0.000000 -0.000000 0.000000 1.988879 6.048923 -25.545301 -0.508422 -0.686644 12.082180 -2.660548 2.089902 -0.740786 -3.370611 23.166241 6.970173 3.310693 27.158609 6.344255 -30.380397 3.653953 -4.772473 -55.209673 2.447680 17.154048 14.390880 -27.299241 -8.764512 -14.786820 -10.287090 3.958022 26.275014 3.883934 2.655798 58.160341 8.081986 12.768529 -12.273461 16.813055 -17.893428 13.939807 9.598234 -5.237731 
0.007436 -1.329984 0.976613 -168.162600 -0.485475 108.595243 5.116002 -0.064901 -19.877829 -2.841377 4.345379 0.318058 -0.702723 12.221564 -8.607952 0.000000 -0.000000 0.000000 -8.297615 -12.808188 -23.375999 -1.530468 -22.700593 11.396119 4.672729 -8.733394 -3.018316 0.000000 -0.000000 0.000000 2.044692 5.887726 -25.661706 -0.677153 -0.484759 11.903586 -2.641492 2.142830 -0.537352 -3.335625 23.320806 6.774961 3.118905 27.103767 6.307074 -30.213854 3.645003 -4.924589 -55.413294 2.705737 17.199307 14.391618 -27.391514 -8.690276 -14.764067 -10.851680 3.924254 26.293694 4.024170 2.602587 58.298109 8.049203 12.747149 -12.318423 17.084818 -17.797242 14.231343 9.830331 -5.101012 
0.008129 -1.329310 0.976206 -168.377049 -0.326971 108.505194 5.292629 0.026356 -19.783820 -2.824186 4.340006 0.421998 -0.649194 12.846762 -8.487231 0.000000 -0.000000 0.000000 -8.178937 -12.685557 -23.299990 -1.454178 -22.579407 11.366165 4.661705 -8.789359 -3.066502 0.000000 -0.000000 0.000000 2.103419 5.885807 -25.449015 -0.564309 -0.508196 11.618342 -2.537145 2.068584 -0.289322 -3.556439 23.136289 6.730514 3.023219 27.290224 6.124589 -30.474777 3.535920 -4.767342 -55.258367 2.794326 17.155877 14.350843 -27.702647 -8.547813 -14.315109 -10.313022 4.186397 26.365754 4.037504 2.526503 58.200356 7.986995 12.655442 -12.312149 17.357339 -17.511254 14.546859 9.671226 -5.179971 
0.008835 -1.328845 0.975983 -168.654252 -0.267822 108.382770 5.341805 0.202946 -19.541248 -2.869480 4.283487 0.305116 -0.620893 13.038298 -8.397343 0.000000 -0.000000 0.000000 -8.208043 -12.625228 -23.192804 -1.329787 -22.543218 11.350993 4.623874 -8.651283 -3.085097 0.000000 -0.000000 0.000000 2.116767 5.855894 -25.226306 -0.531387 -0.516807 11.573380 -2.521118 2.015915 -0.282250 -3.504953 23.160148 6.805887 2.776639 27.238615 5.799770 -30.560707 3.603357 -4.780561 -55.142919 2.775305 17.082705 14.305909 -27.783522 -8.503152 -14.239893 -10.390537 4.446079 26.443010 4.022586 2.473048 58.238487 8.004161 12.652704 -12.238024 17.546936 -17.361251 14.480344 9.441621 -5.135059 
0.009596 -1.328105 0.975612 -168.998235 -0.145255 108.301226 5.512460 0.337085 -19.155512 -2.833919 4.781548 -0.098625 -0.882502 12.094650 -8.667461 0.000000 -0.000000 0.000000 -8.137522 -12.514382 -23.065318 -1.241854 -22.529821 11.243230 4.793395 -8.435724 -3.123069 0.000000 -0.000000 0.000000 2.165385 5.780065 -24.969160 -0.517180 -0.477136 11.243843 -2.453594 2.056210 -0.197784 -3.385339 23.426438 7.067106 2.750313 27.036791 5.646464 -30.405271 3.674634 -4.736771 -55.315790 2.839287 17.140739 14.434004 -27.715318 -8.528173 -14.529405 -10.520468 4.577122 26.445666 3.994653 2.694048 58.391558 8.066630 12.667118 -12.354361 17.688662 -17.351603 14.753487 9.362043 -5.285447 
0.009916 -1.328073 0.975389 -169.243468 -0.066467 108.339815 5.588648 0.442610 -19.251594 -2.832106 4.920455 0.053014 -0.883618 12.065320 -8.635521 0.000000 -0.000000 0.000000 -8.110661 -12.375013 -23.099834 -1.137815 -22.446445 11.101202 4.879788 -8.410016 -3.047090 0.000000 -0.000000 0.000000 2.241991 5.710510 -24.801078 -0.513889 -0.467388 10.910614 -2.436923 2.068053 -0.188522 -3.343561 23.331176 7.325432 2.810960 27.043112 5.685998 -30.380773 3.709012 -4.664816 -55.349809 2.860436 17.119257 14.499881 -27.593940 -8.454675 -14.331731 -10.704749 4.509239 26.354519 3.851117 2.738801 58.508427 7.971451 12.583644 -12.241586 17.902167 -16.964494 14.922484 9.505146 -5.476022 
0.010083 -1.328256 0.975463 -169.456375 -0.035489 108.213951 5.572835 0.545509 -19.105410 -2.836500 4.878346 0.070545 -0.780689 12.346172 -8.708261 0.000000 -0.000000 0.000000 -8.153036 -12.274068 -22.968008 -1.023274 -22.274496 10.980640 4.934821 -8.411170 -2.987623 0.000000 -0.000000 0.000000 2.268923 5.703129 -24.639387 -0.505572 -0.464751 10.981899 -2.446101 2.047174 -0.224075 -3.357308 23.279600 7.278246 2.780117 27.061097 5.692766 -30.453391 3.543938 -4.542773 -55.203737 2.829026 17.021438 14.624109 -27.667277 -8.482794 -14.444765 -10.628688 4.456908 26.381140 3.959565 2.700467 58.464915 7.740964 12.535545 -12.271631 18.074503 -16.921334 15.157575 9.472245 -5.680363 
0.010210 -1.328268 0.975343 -169.737472 0.017938 108.150481 5.560133 0.437384 -18.795175 -2.696399 4.990036 -0.282172 -0.671037 12.683960 -8.502583 0.000000 -0.000000 0.000000 -8.194187 -12.078952 -22.990904 -0.994480 -22.200826 11.013461 4.955499 -8.434303 -2.957825 0.000000 -0.000000 0.000000 2.297581 5.665371 -24.471824 -0.498472 -0.413032 10.907630 -2.404348 2.046002 -0.182336 -3.444694 23.407890 7.399791 2.799477 27.101491 5.427720 -30.466774 3.505412 -4.574904 -55.147523 2.807178 17.002162 14.516006 -27.751067 -8.393313 -14.397989 -10.937467 4.410502 26.404195 3.954845 2.711874 58.371840 7.715349 12.426561 -12.237896 18.116112 -16.926107 15.173374 9.515043 -5.526394 
0.010463 -1.328330 0.975198 -169.949108 0.071074 108.075036 5.631245 0.437335 -18.743137 -2.729587 4.966904 -0.180888 -0.705938 12.902427 -8.455602 0.000000 -0.000000 0.000000 -8.209222 -11.932710 -22.975468 -0.924620 -22.103640 11.009738 4.789128 -8.532867 -3.028231 0.000000 -0.000000 0.000000 2.275609 5.622411 -24.201990 -0.461894 -0.441745 10.761571 -2.365687 2.056498 -0.176670 -3.557752 23.374587 7.364570 2.769696 27.218698 5.400367 -30.490882 3.491603 -4.472928 -55.165814 2.660952 17.129795 14.601479 -27.828878 -8.327885 -14.112860 -10.485918 4.263817 26.442538 3.940694 2.723150 58.323321 7.623751 12.518314 -12.338226 18.188578 -16.856296 15.082484 9.453289 -5.737974 
